<svg xmlns="http://www.w3.org/2000/svg" viewBox="0 0 512 512" role="img" aria-labelledby="title desc">
  <title id="title">FIK Smart Print Server Icon</title>
  <desc id="desc">Ikon printer dengan latar gradien biru-ungu.</desc>
  <defs>
    <linearGradient id="bg" x1="0%" y1="0%" x2="100%" y2="100%">
      <stop offset="0%" stop-color="#667eea" />
      <stop offset="100%" stop-color="#764ba2" />
    </linearGradient>
    <linearGradient id="accent" x1="0%" y1="0%" x2="100%" y2="0%">
      <stop offset="0%" stop-color="#22d3ee" />
      <stop offset="100%" stop-color="#38bdf8" />
    </linearGradient>
  </defs>

  <rect width="512" height="512" rx="112" fill="url(#bg)" />

  <rect x="150" y="88" width="212" height="122" rx="20" fill="#ffffff" opacity="0.95" />
  <rect x="176" y="120" width="160" height="10" rx="5" fill="#dbeafe" />
  <rect x="176" y="145" width="132" height="10" rx="5" fill="#dbeafe" />

  <rect x="124" y="184" width="264" height="194" rx="36" fill="#ffffff" />
  <rect x="150" y="216" width="212" height="40" rx="14" fill="#eff6ff" />
  <circle cx="178" cy="236" r="8" fill="#34d399" />
  <circle cx="206" cy="236" r="8" fill="#f59e0b" />
  <circle cx="234" cy="236" r="8" fill="#60a5fa" />

  <rect x="170" y="274" width="172" height="64" rx="14" fill="url(#accent)" />
  <rect x="194" y="292" width="124" height="10" rx="5" fill="#f0f9ff" />
  <rect x="194" y="310" width="96" height="10" rx="5" fill="#f0f9ff" />

  <text x="256" y="424" text-anchor="middle" font-size="44" font-family="Segoe UI, Arial, sans-serif" font-weight="800" fill="#ffffff">FIK</text>
</svg>
